<svg xmlns="http://www.w3.org/2000/svg" width="70" height="61" viewBox="0 0 70 61" fill="none"><path d="M36.5046 15.0241L36.5968 15.0517L36.6008 15.0471C37.0385 15.1264 37.4727 14.8643 37.6013 14.4302C38.7729 10.4935 42.464 7.74336 46.5764 7.74336C47.0633 7.74336 47.4581 7.34848 47.4581 6.86162C47.4581 6.37475 47.0633 5.97988 46.5764 5.97988C41.5223 5.97988 37.2751 9.34497 35.9113 13.9277C35.7722 14.3945 36.0381 14.885 36.5046 15.0241Z" fill="#483EA8" stroke="#91CD91" stroke-width="0.3"></path><path d="M56.8203 42.7167H52.43C52.026 42.7167 51.6982 42.389 51.6982 41.985C51.6982 41.581 52.026 41.2533 52.43 41.2533H56.8203C62.8722 41.2533 67.7963 36.3292 67.7963 30.2773C67.7963 24.2254 62.8722 19.3014 56.8203 19.3014H56.7147C56.5025 19.3014 56.3008 19.2094 56.1618 19.0489C56.0227 18.8885 55.96 18.6757 55.9903 18.4656C56.0557 18.0099 56.0886 17.552 56.0886 17.1062C56.0886 11.8613 51.821 7.59363 46.576 7.59363C44.5356 7.59363 42.5897 8.23128 40.9484 9.4381C40.5878 9.7031 40.0756 9.5855 39.8671 9.18879C35.219 0.33802 23.0788 -0.850548 16.7848 6.84885C14.1334 10.0925 13.0916 14.3119 13.9264 18.4244C14.0184 18.8786 13.6708 19.3019 13.2093 19.3019H12.916C6.86416 19.3019 1.94009 24.226 1.94009 30.2779C1.94009 36.3298 6.86416 41.2538 12.916 41.2538H17.3064C17.7104 41.2538 18.0381 41.5815 18.0381 41.9856C18.0381 42.3896 17.7104 42.7173 17.3064 42.7173H12.916C6.05706 42.7173 0.476562 37.1368 0.476562 30.2778C0.476562 23.6112 5.74811 18.1525 12.3416 17.8515C11.7223 13.5849 12.9066 9.28127 15.6516 5.92269C22.3903 -2.32128 35.3045 -1.39724 40.7637 7.79539C42.5053 6.70354 44.4981 6.13076 46.5758 6.13076C52.9303 6.13076 57.9657 11.5393 57.5251 17.8583C64.0579 18.2247 69.2595 23.6546 69.2595 30.2773C69.2595 37.1368 63.679 42.7168 56.82 42.7168L56.8203 42.7167Z" fill="#483EA8"></path><path d="M16.3266 41.5718C16.3266 51.7417 24.6002 60.0153 34.77 60.0153C44.94 60.0153 53.2135 51.7416 53.2135 41.5718C53.2135 31.4019 44.94 23.1283 34.77 23.1283C24.6001 23.1283 16.3266 31.402 16.3266 41.5718ZM18.0904 41.5718C18.0904 32.3749 25.573 24.8921 34.77 24.8921C43.9669 24.8921 51.4497 32.3748 51.4497 41.5718C51.4497 50.7687 43.9669 58.2515 34.77 58.2515C25.5731 58.2515 18.0904 50.7688 18.0904 41.5718Z" fill="#483EA8" stroke="#91CD91" stroke-width="0.3"></path><path d="M34.4188 48.936C34.4188 49.3146 34.7259 49.6217 35.1046 49.6217C35.4831 49.6217 35.7903 49.315 35.7903 48.936V35.0074C35.7903 34.6288 35.4832 34.3217 35.1046 34.3217C34.7259 34.3217 34.4188 34.6288 34.4188 35.0074V48.936Z" fill="#483EA8" stroke="#483EA8" stroke-width="0.3"></path><path d="M35.1047 35.9787L31.304 39.7794L35.1047 35.9787ZM35.1047 35.9787L38.9054 39.7795C39.0392 39.9132 39.2152 39.9803 39.3903 39.9803L35.1047 35.9787ZM30.3341 39.7795C30.6019 40.0473 31.0363 40.0474 31.3039 39.7795L39.3903 39.9803C39.5651 39.9803 39.7413 39.9138 39.8752 39.7794C40.1431 39.5115 40.143 39.0776 39.8752 38.8097L35.5895 34.5241C35.3217 34.2563 34.8873 34.2561 34.6198 34.5241C34.6197 34.5241 34.6197 34.5241 34.6197 34.5242L30.3341 38.8097C30.0662 39.0776 30.0662 39.5116 30.3341 39.7795Z" fill="#483EA8" stroke="#483EA8" stroke-width="0.3"></path></svg>